<?xml version="1.0" encoding="utf-8"?>
<!-- Generator: Adobe Illustrator 23.0.4, SVG Export Plug-In . SVG Version: 6.00 Build 0)  -->
<svg version="1.1" id="Layer_1" xmlns="http://www.w3.org/2000/svg" xmlns:xlink="http://www.w3.org/1999/xlink" x="0px" y="0px"
	 viewBox="0 0 168 168" style="enable-background:new 0 0 168 168;" xml:space="preserve">
<style type="text/css">
	.st0{fill:#70A060;}
	.st1{fill:#2D4356;}
</style>
<path class="st0" d="M102,74.8c-6.1,0-11,4.9-11,11s4.9,11,11,11s11-4.9,11-11S108.1,74.8,102,74.8z M102,92.8c-3.9,0-7-3.1-7-7
	s3.1-7,7-7s7,3.1,7,7C109,89.6,105.9,92.7,102,92.8z M64,96.8c6.1,0,11-4.9,11-11s-4.9-11-11-11s-11,4.9-11,11S57.9,96.8,64,96.8z
	 M64,78.8c3.9,0,7,3.1,7,7s-3.1,7-7,7s-7-3.1-7-7C57,81.9,60.1,78.8,64,78.8z"/>
<path class="st1" d="M43,100.8v1.3c1-0.2,2-0.3,3-0.3c0.3,0,0.7,0,1,0.1v-1.1c0-2.2,1.8-4,4-4h2.8c-1.2-1.1-2.3-2.5-3.1-4
	C46.4,92.9,43,96.4,43,100.8z M84,101.8c0.3,0,0.7,0,1,0.1v-1.1c0-2.2,1.8-4,4-4h2.8c-1.2-1.1-2.3-2.5-3.1-4
	c-2.2,0.1-4.3,1.1-5.7,2.7c-1.5-1.7-3.5-2.6-5.7-2.7c-0.8,1.5-1.8,2.8-3.1,4H77c2.2,0,4,1.8,4,4v1.3C82,101.9,83,101.7,84,101.8z
	 M122,101.8c0.3,0,0.7,0,1,0.1v-1.1c0-4.3-3.4-7.9-7.7-8c-0.8,1.5-1.8,2.8-3.1,4h2.8c2.2,0,4,1.8,4,4v1.3
	C120,101.9,121,101.7,122,101.8z M112,23.8H56c-4.4,0-8,3.6-8,8v26c0,4.4,3.6,8,8,8h10.8l13.1,12.9c1.6,1.5,4.1,1.5,5.7,0
	c0.7-0.7,1.1-1.8,1.1-2.8v-10H112c4.4,0,8-3.6,8-8v-26C120,27.3,116.4,23.8,112,23.8z M116,57.8c0,2.2-1.8,4-4,4H82.6v14l-14.2-14
	H56c-2.2,0-4-1.8-4-4v-26c0-2.2,1.8-4,4-4h56c2.2,0,4,1.8,4,4V57.8z"/>
<path class="st0" d="M64,36.8c-4.4,0-8,3.6-8,8s3.6,8,8,8s8-3.6,8-8C72,40.3,68.4,36.8,64,36.8z M64,48.8c-2.2,0-4-1.8-4-4
	s1.8-4,4-4c2.2,0,4,1.8,4,4S66.2,48.8,64,48.8z M84,36.8c-4.4,0-8,3.6-8,8s3.6,8,8,8s8-3.6,8-8C92,40.3,88.4,36.8,84,36.8z M84,48.8
	c-2.2,0-4-1.8-4-4s1.8-4,4-4s4,1.8,4,4S86.2,48.8,84,48.8z M104,36.8c-4.4,0-8,3.6-8,8s3.6,8,8,8s8-3.6,8-8
	C112,40.3,108.4,36.8,104,36.8z M104,48.8c-2.2,0-4-1.8-4-4s1.8-4,4-4s4,1.8,4,4S106.2,48.8,104,48.8z M118.2,156.8h-8.3
	c-1.1,0.1-1.9,1.1-1.8,2.2c0.1,1,0.9,1.8,1.8,1.8h8.3c1.1-0.1,1.9-1.1,1.8-2.2C119.9,157.6,119.1,156.8,118.2,156.8z M58.2,156.8
	h-8.3c-1.1,0.1-1.9,1.1-1.8,2.2c0.1,1,0.9,1.8,1.8,1.8h8.3c1.1-0.1,1.9-1.1,1.8-2.2C59.9,157.6,59.1,156.8,58.2,156.8z M104,156.8
	H64c-1.1,0-2,0.9-2,2s0.9,2,2,2h15.9v2H72c-1.1,0-2,0.9-2,2s0.9,2,2,2h25c1.1,0,2-0.9,2-2s-0.9-2-2-2h-8.9v-2H104c1.1,0,2-0.9,2-2
	S105.1,156.8,104,156.8z"/>
<path class="st0" d="M118.2,156.8h-8.3c-1.1,0.1-1.9,1.1-1.8,2.2c0.1,1,0.9,1.8,1.8,1.8h8.3c1.1-0.1,1.9-1.1,1.8-2.2
	C119.9,157.6,119.1,156.8,118.2,156.8z M58.2,156.8h-8.3c-1.1,0.1-1.9,1.1-1.8,2.2c0.1,1,0.9,1.8,1.8,1.8h8.3
	c1.1-0.1,1.9-1.1,1.8-2.2C59.9,157.6,59.1,156.8,58.2,156.8z M104,156.8H64c-1.1,0-2,0.9-2,2s0.9,2,2,2h15.9v2H72c-1.1,0-2,0.9-2,2
	s0.9,2,2,2h25c1.1,0,2-0.9,2-2s-0.9-2-2-2h-8.9v-2H104c1.1,0,2-0.9,2-2S105.1,156.8,104,156.8z M46,127.8c6.1,0,11-4.9,11-11
	s-4.9-11-11-11s-11,4.9-11,11S39.9,127.8,46,127.8L46,127.8z M46,109.8c3.9,0,7,3.1,7,7s-3.1,7-7,7s-7-3.1-7-7
	C39,112.9,42.1,109.8,46,109.8z M84,127.8c6.1,0,11-4.9,11-11s-4.9-11-11-11s-11,4.9-11,11S77.9,127.8,84,127.8L84,127.8z M84,109.8
	c3.9,0,7,3.1,7,7s-3.1,7-7,7s-7-3.1-7-7C77,112.9,80.1,109.8,84,109.8z M122,127.8c6.1,0,11-4.9,11-11s-4.9-11-11-11s-11,4.9-11,11
	S115.9,127.8,122,127.8L122,127.8z M122,109.8c3.9,0,7,3.1,7,7s-3.1,7-7,7s-7-3.1-7-7C115,112.9,118.1,109.8,122,109.8z"/>
<circle class="st1" cx="2" cy="150.8" r="2"/>
<path class="st1" d="M11,148.8H8c-1.1,0-2,0.9-2,2s0.9,2,2,2h3c1.1,0,2-0.9,2-2S12.1,148.8,11,148.8z M160,148.8h-3
	c-1.1,0-2,0.9-2,2s0.9,2,2,2h3c1.1,0,2-0.9,2-2S161.1,148.8,160,148.8z"/>
<circle class="st1" cx="166" cy="150.8" r="2"/>
<path class="st1" d="M150.7,148.8H143v-17c0-4.3-3.4-7.9-7.7-8c-0.8,1.5-1.8,2.8-3.1,4h2.8c2.2,0,4,1.8,4,4v17h-34v-17
	c0-2.2,1.8-4,4-4h2.8c-1.2-1.1-2.3-2.5-3.1-4c-2.2,0.1-4.3,1.1-5.7,2.7c-1.5-1.7-3.5-2.6-5.7-2.7c-0.8,1.5-1.8,2.8-3.1,4H97
	c2.2,0,4,1.8,4,4v17H67v-17c0-2.2,1.8-4,4-4h2.8c-1.2-1.1-2.3-2.5-3.1-4c-2.2,0.1-4.3,1.1-5.7,2.7c-1.5-1.7-3.5-2.6-5.7-2.7
	c-0.8,1.5-1.8,2.8-3.1,4H59c2.2,0,4,1.8,4,4v17H29v-17c0-2.2,1.8-4,4-4h2.8c-1.2-1.1-2.3-2.5-3.1-4c-4.3,0.1-7.7,3.7-7.7,8v17h-7.7
	c-1.1-0.1-2.1,0.6-2.3,1.7c-0.1,1.1,0.6,2.1,1.7,2.3c0.2,0,0.3,0,0.5,0h133.4c1.1,0.1,2.1-0.6,2.3-1.7s-0.6-2.1-1.7-2.3
	C151.1,148.7,150.9,148.7,150.7,148.8z M125,7.2c1.7,0,3-1.3,3-3s-1.3-3-3-3s-3,1.3-3,3C122,5.9,123.3,7.2,125,7.2z M125,2.8
	c0.8,0,1.5,0.7,1.5,1.5s-0.7,1.5-1.5,1.5s-1.5-0.7-1.5-1.5C123.5,3.4,124.2,2.8,125,2.8z M153,49.2c-1.1,0-2,0.9-2,2s0.9,2,2,2
	s2-0.9,2-2C155,50.1,154.1,49.2,153,49.2z M153,52.2c-0.6,0-1-0.4-1-1s0.4-1,1-1s1,0.4,1,1C154,51.8,153.6,52.2,153,52.2z M39,42.8
	c-1.1,0-2,0.9-2,2s0.9,2,2,2s2-0.9,2-2C41,43.6,40.1,42.8,39,42.8z M39,45.8c-0.6,0-1-0.4-1-1s0.4-1,1-1s1,0.4,1,1
	C40,45.3,39.6,45.7,39,45.8z M131,34.8c-1.1,0-2,0.9-2,2s0.9,2,2,2s2-0.9,2-2C133,35.6,132.1,34.8,131,34.8z M131,37.8
	c-0.6,0-1-0.4-1-1s0.4-1,1-1s1,0.4,1,1C132,37.3,131.6,37.7,131,37.8z M39,7.2c0-1.1-0.9-2-2-2s-2,0.9-2,2s0.9,2,2,2
	C38.1,9.2,39,8.4,39,7.2z M36,7.2c0-0.6,0.4-1,1-1s1,0.4,1,1s-0.4,1-1,1C36.4,8.2,36,7.8,36,7.2z"/>
<polygon class="st0" points="8.1,51.5 9.6,49.5 8.7,49 7.7,51.2 7.7,51.2 6.7,49 5.7,49.6 7.2,51.5 7.2,51.5 4.9,51.2 4.9,52.3 
	7.2,52 7.2,52 5.7,53.9 6.6,54.5 7.7,52.3 7.7,52.3 8.6,54.5 9.6,53.9 8.1,52 8.1,52 10.5,52.3 10.5,51.2 8.1,51.5 "/>
<polygon class="st0" points="3.7,23.9 2.9,25 3.4,25.3 4,24.1 4,24.1 4.5,25.3 5.1,25 4.2,23.9 4.2,23.9 5.6,24.1 5.6,23.4 
	4.2,23.6 4.2,23.6 5.1,22.5 4.6,22.2 4,23.4 4,23.4 3.4,22.2 2.9,22.5 3.7,23.6 3.7,23.6 2.4,23.4 2.4,24.1 3.7,23.9 "/>
<polygon class="st0" points="160,12.5 160,11.4 157.7,11.7 157.7,11.7 159.2,9.8 158.2,9.2 157.3,11.4 157.3,11.4 156.3,9.3 
	155.4,9.8 156.8,11.7 156.8,11.7 154.6,11.4 154.6,12.5 156.9,12.2 156.9,12.2 155.4,14.1 156.3,14.6 157.3,12.5 157.3,12.5 
	158.2,14.6 159.2,14.1 157.7,12.2 157.7,12.2 "/>
<polygon class="st0" points="77.4,17.3 78.6,15.7 77.8,15.2 77,17.1 77,17.1 76.2,15.2 75.4,15.7 76.6,17.3 76.6,17.3 74.7,17.1 
	74.7,18 76.6,17.7 76.6,17.8 75.4,19.4 76.1,19.9 77,18 77,18 77.8,19.8 78.6,19.4 77.4,17.8 77.4,17.8 79.3,18 79.3,17.1 
	77.4,17.4 "/>
</svg>
